# Blender v2.82 (sub 7) OBJ File: ''
# www.blender.org
mtllib rod.mtl
o pCube3
v -4.913800 0.011000 -0.158500
v -4.753300 0.011000 -0.292500
v -4.913800 0.011000 0.158500
v -4.074400 0.011000 -0.292500
v -4.753300 0.011000 0.292500
v -4.074400 0.011000 0.292500
v -3.913800 0.011000 -0.158500
v -3.913800 0.011000 0.158500
v 6.484800 11.597900 0.158502
v 4.367700 10.253000 0.158502
v 6.523800 11.463800 0.292502
v 4.445000 10.143300 0.292502
v 7.023800 11.463800 0.292502
v 7.484800 11.597900 0.158502
v 5.367700 10.253000 0.158502
v 5.290500 10.362800 0.292502
v 6.484800 11.597900 -0.158498
v 6.523800 11.463800 -0.292498
v 4.367700 10.253000 -0.158498
v 4.445000 10.143300 -0.292498
v 7.023800 11.463800 -0.292498
v 7.484800 11.597900 -0.158498
v 5.367700 10.253000 -0.158498
v 5.290500 10.362800 -0.292498
v -3.586200 2.023600 0.158500
v -3.477600 1.944800 0.292500
v -1.909500 4.126300 0.158501
v -1.806000 4.041200 0.292501
v -2.694800 2.102500 0.292500
v -2.586200 2.023600 0.158500
v -1.013100 4.211400 0.292501
v -0.909500 4.126300 0.158501
v 2.154900 8.362100 -0.292499
v 2.065600 8.462500 -0.158499
v 3.065600 8.462500 -0.158499
v 2.976400 8.562800 -0.292499
v -0.003300 6.171800 0.292501
v -0.102300 6.262300 0.158501
v -3.586200 2.023600 -0.158500
v -3.477600 1.944800 -0.292500
v -1.909500 4.126300 -0.158499
v -1.806000 4.041200 -0.292499
v -2.694800 2.102500 -0.292500
v -2.586200 2.023600 -0.158500
v -1.013100 4.211400 -0.292499
v -0.909500 4.126300 -0.158499
v 0.897700 6.262300 0.158501
v 0.798600 6.352700 0.292501
v 2.154900 8.362100 0.292501
v 2.065600 8.462500 0.158501
v -0.003300 6.171800 -0.292499
v -0.102300 6.262300 -0.158499
v 0.897700 6.262300 -0.158499
v 0.798600 6.352700 -0.292499
v 3.065600 8.462500 0.158501
v 2.976400 8.562800 0.292501
vt 0.375000 0.807300
vt 0.415100 0.750000
vt 0.375000 0.942700
vt 0.584900 0.750000
vt 0.415100 1.000000
vt 0.584900 1.000000
vt 0.625000 0.807300
vt 0.625000 0.942700
vt 0.317700 0.250000
vt 0.317700 0.227700
vt 0.437500 0.247800
vt 0.429600 0.224900
vt 0.562500 0.247800
vt 0.375000 0.307300
vt 0.625000 0.307300
vt 0.682300 0.250000
vt 0.682300 0.227700
vt 0.562500 0.229500
vt 0.182300 0.250000
vt 0.125000 0.249700
vt 0.182300 0.227700
vt 0.125000 0.227800
vt 0.437500 0.502200
vt 0.375000 0.442700
vt 0.562500 0.502200
vt 0.625000 0.442700
vt 0.625000 0.522300
vt 0.562500 0.520500
vt 0.317700 0.000000
vt 0.415100 0.000000
vt 0.317700 0.043400
vt 0.415100 0.041700
vt 0.317700 0.088800
vt 0.417900 0.087000
vt 0.584900 0.000000
vt 0.682300 0.000000
vt 0.582100 0.045100
vt 0.682300 0.043400
vt 0.581100 0.090600
vt 0.682300 0.088800
vt 0.125000 0.227600
vt 0.125000 0.182500
vt 0.182300 0.182300
vt 0.625000 0.567700
vt 0.570400 0.565100
vt 0.418900 0.132900
vt 0.317700 0.134900
vt 0.375000 0.706600
vt 0.415100 0.708300
vt 0.182300 0.043400
vt 0.182300 0.088800
vt 0.125000 0.043500
vt 0.125000 0.088800
vt 0.582100 0.704900
vt 0.625000 0.706600
vt 0.581100 0.659400
vt 0.625000 0.661200
vt 0.682300 0.134900
vt 0.578000 0.136800
vt 0.422000 0.180200
vt 0.317700 0.182300
vt 0.125000 0.134800
vt 0.182300 0.134900
vt 0.625000 0.615100
vt 0.578000 0.613200
vt 0.682300 0.182300
vt 0.570400 0.184900
vt 0.125000 0.135000
vt 0.125000 0.182200
vt 0.817700 0.043400
vt 0.817700 0.000000
vt 0.182300 0.000000
vt 0.417900 0.663000
vt 0.817700 0.088800
vt 0.418900 0.617100
vt 0.817700 0.134900
vt 0.422000 0.569800
vt 0.817700 0.182300
vt 0.429600 0.525100
vt 0.817700 0.227700
vt 0.817700 0.250000
vn -0.0000 -1.0000 -0.0000
vn -0.3075 0.6267 0.7161
vn -0.4091 0.5763 0.7075
vn -0.3196 0.6220 0.7149
vn -0.4091 0.5762 0.7075
vn 0.0000 0.7068 0.7074
vn 0.3792 -0.5969 0.7071
vn 0.3792 -0.5968 0.7071
vn 0.4115 -0.5746 0.7075
vn 0.4116 -0.5745 0.7075
vn -0.3075 0.6267 -0.7161
vn -0.3196 0.6220 -0.7149
vn -0.4091 0.5763 -0.7075
vn 0.0000 0.7068 -0.7074
vn 0.3792 -0.5969 -0.7071
vn 0.4115 -0.5746 -0.7075
vn 0.3792 -0.5968 -0.7071
vn 0.4116 -0.5744 -0.7075
vn -0.5903 0.3894 0.7070
vn -0.5903 0.3894 0.7071
vn -0.5705 0.4172 0.7075
vn -0.5464 0.4488 0.7071
vn 0.5901 -0.3893 0.7073
vn 0.5708 -0.4166 0.7075
vn 0.5708 -0.4168 0.7075
vn 0.5462 -0.4487 0.7073
vn 0.5462 -0.4490 0.7071
vn -0.4704 0.5269 -0.7079
vn 0.4704 -0.5269 -0.7079
vn -0.5212 0.4774 0.7074
vn -0.5211 0.4776 0.7074
vn -0.5903 0.3894 -0.7070
vn -0.5705 0.4172 -0.7075
vn -0.5903 0.3894 -0.7071
vn -0.5464 0.4488 -0.7071
vn 0.5901 -0.3893 -0.7073
vn 0.5708 -0.4167 -0.7075
vn 0.5708 -0.4168 -0.7075
vn 0.5462 -0.4490 -0.7071
vn 0.5463 -0.4487 -0.7073
vn 0.5211 -0.4775 0.7074
vn -0.4704 0.5269 0.7079
vn -0.5211 0.4776 -0.7074
vn 0.5211 -0.4775 -0.7074
vn 0.4704 -0.5269 0.7079
vn 0.0000 -0.0000 1.0000
vn 0.0000 1.0000 0.0000
vn 0.0000 0.0000 -1.0000
vn 0.8077 -0.5896 -0.0000
vn 0.8347 -0.5506 0.0000
vn -0.8077 0.5896 0.0000
vn -0.8347 0.5506 0.0000
vn -0.7727 0.6347 0.0000
vn 0.7727 -0.6347 0.0000
vn -0.7371 0.6758 0.0000
vn 0.7371 -0.6758 -0.0000
vn -0.6660 0.7459 -0.0000
vn 0.6660 -0.7459 0.0000
vn -0.5786 0.8156 -0.0000
vn 0.5786 -0.8156 0.0000
vn -0.5362 0.8441 0.0000
vn 0.5362 -0.8441 0.0000
usemtl fishing_rod_proto_initialShadingGroup
s 1
f 1/1/1 2/2/1 3/3/1
f 2/2/1 4/4/1 3/3/1
f 3/3/1 4/4/1 5/5/1
f 5/5/1 4/4/1 6/6/1
f 4/4/1 7/7/1 6/6/1
f 7/7/1 8/8/1 6/6/1
f 9/9/2 10/10/3 11/11/4
f 11/11/4 10/10/3 12/12/5
f 11/11/4 13/13/6 9/14/2
f 9/14/2 13/13/6 14/15/6
f 14/16/7 13/13/8 15/17/9
f 15/17/9 13/13/8 16/18/10
f 17/19/11 18/20/12 19/21/13
f 19/21/13 18/20/12 20/22/13
f 18/23/12 17/24/11 21/25/14
f 21/25/14 17/24/11 22/26/14
f 22/26/15 23/27/16 21/25/17
f 21/25/17 23/27/16 24/28/18
f 3/29/19 5/30/20 25/31/21
f 25/31/21 5/30/20 26/32/21
f 25/31/21 26/32/21 27/33/22
f 27/33/22 26/32/21 28/34/22
f 6/35/23 8/36/23 29/37/24
f 29/37/24 8/36/23 30/38/25
f 29/37/24 30/38/25 31/39/26
f 31/39/26 30/38/25 32/40/27
f 20/41/13 33/42/28 19/21/13
f 19/21/13 33/42/28 34/43/28
f 23/27/16 35/44/29 24/28/18
f 24/28/18 35/44/29 36/45/29
f 28/34/22 37/46/30 27/33/22
f 27/33/22 37/46/30 38/47/31
f 1/1/32 39/48/33 2/2/34
f 2/2/34 39/48/33 40/49/33
f 39/50/33 41/51/35 40/52/33
f 40/52/33 41/51/35 42/53/35
f 4/4/36 43/54/37 7/7/36
f 7/7/36 43/54/37 44/55/38
f 43/54/37 45/56/39 44/55/38
f 44/55/38 45/56/39 46/57/40
f 32/40/27 47/58/41 31/39/26
f 31/39/26 47/58/41 48/59/41
f 37/46/30 49/60/42 38/47/31
f 38/47/31 49/60/42 50/61/42
f 42/53/35 41/51/35 51/62/43
f 51/62/43 41/51/35 52/63/43
f 46/57/40 45/56/39 53/64/44
f 53/64/44 45/56/39 54/65/44
f 47/58/41 55/66/45 48/59/41
f 48/59/41 55/66/45 56/67/45
f 50/61/42 49/60/42 10/10/3
f 10/10/3 49/60/42 12/12/5
f 51/68/43 52/63/43 33/69/28
f 33/69/28 52/63/43 34/43/28
f 53/64/44 54/65/44 35/44/29
f 35/44/29 54/65/44 36/45/29
f 56/67/45 55/66/45 16/18/10
f 16/18/10 55/66/45 15/17/9
f 5/30/46 6/35/46 26/32/46
f 26/32/46 6/35/46 29/37/46
f 9/14/47 14/15/47 17/24/47
f 17/24/47 14/15/47 22/26/47
f 43/54/48 4/4/48 40/49/48
f 40/49/48 4/4/48 2/2/48
f 30/38/49 8/36/50 44/70/49
f 44/70/49 8/36/50 7/71/50
f 39/50/51 1/72/52 25/31/51
f 25/31/51 1/72/52 3/29/52
f 39/50/51 25/31/51 41/51/53
f 41/51/53 25/31/51 27/33/53
f 45/56/48 43/54/48 42/73/48
f 42/73/48 43/54/48 40/49/48
f 30/38/49 44/70/49 32/40/54
f 32/40/54 44/70/49 46/74/54
f 26/32/46 29/37/46 28/34/46
f 28/34/46 29/37/46 31/39/46
f 41/51/53 27/33/53 52/63/55
f 52/63/55 27/33/53 38/47/55
f 54/65/48 45/56/48 51/75/48
f 51/75/48 45/56/48 42/73/48
f 32/40/54 46/74/54 47/58/56
f 47/58/56 46/74/54 53/76/56
f 28/34/46 31/39/46 37/46/46
f 37/46/46 31/39/46 48/59/46
f 52/63/55 38/47/55 34/43/57
f 34/43/57 38/47/55 50/61/57
f 36/45/48 54/65/48 33/77/48
f 33/77/48 54/65/48 51/75/48
f 47/58/56 53/76/56 55/66/58
f 55/66/58 53/76/56 35/78/58
f 37/46/46 48/59/46 49/60/46
f 49/60/46 48/59/46 56/67/46
f 34/43/57 50/61/57 19/21/59
f 19/21/59 50/61/57 10/10/59
f 24/28/48 36/45/48 20/79/48
f 20/79/48 36/45/48 33/77/48
f 55/66/58 35/78/58 15/17/60
f 15/17/60 35/78/58 23/80/60
f 49/60/46 56/67/46 12/12/46
f 12/12/46 56/67/46 16/18/46
f 19/21/59 10/10/59 17/19/61
f 17/19/61 10/10/59 9/9/61
f 21/25/48 24/28/48 18/23/48
f 18/23/48 24/28/48 20/79/48
f 15/17/60 23/80/60 14/16/62
f 14/16/62 23/80/60 22/81/62
f 12/12/46 16/18/46 11/11/46
f 11/11/46 16/18/46 13/13/46
