# Blender v2.82 (sub 7) OBJ File: ''
# www.blender.org
mtllib targetCube.mtl
o Cube_Cube.001
v -0.280703 1.000000 0.280703
v -1.000000 -1.000000 -1.000000
v -1.000000 -1.000000 1.000000
v -0.280703 1.000000 -0.280703
v 1.000000 -1.000000 -1.000000
v 0.280703 1.000000 -0.280703
v 1.000000 -1.000000 1.000000
v 0.280703 1.000000 0.280703
vt 0.514537 0.132931
vt 0.319154 0.336128
vt 0.319154 0.132931
vt 0.514537 0.336128
vt 0.319154 0.524200
vt 0.514537 0.524200
vt 0.319154 0.712272
vt 0.514537 0.712272
vt 0.319154 0.877656
vt 0.123770 0.712272
vt 0.123770 0.524200
vt 0.709921 0.524200
vt 0.514537 0.877656
vt 0.709921 0.712272
vn -0.9410 0.3384 0.0000
vn 0.0000 0.3384 -0.9410
vn 0.9410 0.3384 0.0000
vn 0.0000 0.3384 0.9410
vn 0.0000 -1.0000 -0.0000
vn 0.0000 1.0000 0.0000
usemtl Material.001
s 1
f 1/1/1 2/2/1 3/3/1
f 4/4/2 5/5/2 2/2/2
f 6/6/3 7/7/3 5/5/3
f 8/8/4 3/9/4 7/7/4
f 5/5/5 3/10/5 2/11/5
f 4/12/6 8/8/6 6/6/6
f 1/1/1 4/4/1 2/2/1
f 4/4/2 6/6/2 5/5/2
f 6/6/3 8/8/3 7/7/3
f 8/8/4 1/13/4 3/9/4
f 5/5/5 7/7/5 3/10/5
f 4/12/6 1/14/6 8/8/6
